.
..............................Site Info...........................

 -   http://www.scenetime.com  *_*   

SceneTime is going to Close sign up on march/1, hurry up! get in before the doors are closed.

     We care to share . Join us on  http://www.scenetime.com 

    Be the first to get new release at  http://www.scenetime.com

        Seed back for speed


...................................NFO:.................................................








































          
          
              
              
                    
                    
                    
                    
Ghost.Rider.Spirit.of.Vengeance.2012.TS.READNFO.XviD-SiC

Poster:
[img]http://i.imgur.com/csnrr.jpg[/img]

IMDB Link:
http://www.imdb.com/title/tt1071875/

Description:
As Johnny Blaze hides out in Eastern Europe, he is called upon to stop the devil, who is trying to take human form.

General:
Complete name                            : Ghost.Rider.Spirit.of.Vengeance.2012.TS.READNFO.XviD-SiC.avi
Format                                   : AVI
Format/Info                              : Audio Video Interleave
File size                                : 702 MiB
Duration                                 : 1h 19mn
Overall bit rate                         : 1 230 Kbps

Video
ID                               : 0
Format                           : MPEG-4 Visual
Format profile                   : Advanced Simple@L5
Format settings, BVOP            : 2
Format settings, QPel            : No
Format settings, GMC             : No warppoints
Format settings, Matrix          : Default (H.263)
Muxing mode                      : Packed bitstream
Codec ID                         : XVID
Codec ID/Hint                    : XviD
Duration                         : 1h 19mn
Bit rate                         : 1 093 Kbps
Width                            : 640 pixels
Height                           : 272 pixels
Display aspect ratio             : 2.35:1
Frame rate                       : 25.000 fps
Color space                      : YUV
Chroma subsampling               : 4:2:0
Bit depth                        : 8 bits
Scan type                        : Progressive
Compression mode                 : Lossy
Bits/(Pixel*Frame)               : 0.251
Stream size                      : 624 MiB (89%)
Writing library                  : XviD 64

Audio
ID                               : 1
Format                           : MPEG Audio
Format version                   : Version 1
Format profile                   : Layer 3
Mode                             : Joint stereo
Mode extension                   : MS Stereo
Codec ID                         : 55
Codec ID/Hint                    : MP3
Duration                         : 1h 19mn
Bit rate mode                    : Constant
Bit rate                         : 128 Kbps
Channel(s)                       : 2 channels
Sampling rate                    : 44.1 KHz
Compression mode                 : Lossy
Stream size                      : 73.1 MiB (10%)
Alignment                        : Split accross interleaves
Interleave, duration             : 40 ms (1.00 video frame)

Screenshots:
[IMG]http://i.imgur.com/6QHrn.png[/IMG]
[IMG]http://i.imgur.com/JGJsD.png[/IMG]
[IMG]http://i.imgur.com/ZAf5i.png[/IMG]
[IMG]http://i.imgur.com/p8MGr.png[/IMG]
[IMG]http://i.imgur.com/IRrhd.png[/IMG]
[IMG]http://i.imgur.com/rWMNn.png[/IMG]
[IMG]http://i.imgur.com/7Qd28.png[/IMG]
[IMG]http://i.imgur.com/HRumx.png[/IMG]
[IMG]http://i.imgur.com/zj89Q.png[/IMG]
[IMG]http://i.imgur.com/5kJPd.png[/IMG]
[IMG]http://i.imgur.com/GJ71s.png[/IMG]

Note:  First off, this wont be for everyone. Video is over cropped with a few areas missing.
First six minutes arent there and another 2 minutes missing at 36:28. 
Source was slanted and had a stobbing greenish tint to it as well as some 3D effect from time to time.
Cleaned the video up as best as possible and fixed the angle. Audio is nice, fully synced and COMPLETE THRU TO THE END.


Source:  Ghost Rider 2 Spirit Of Vengeance 2012 Scam Hindi TDT  -  MANY THANKS :)
	 LittlebirD  -  MANY THANKS :)
Enjoy!

Respects to T00NG0D, ELEKTRI4KA, PA, YeFsTe, MrRep and everyone in the struggle...